<svg width="20" height="12" viewBox="0 0 20 12" fill="none" xmlns="http://www.w3.org/2000/svg">
<path d="M2.63183 11.5C2.03294 11.5 1.54833 11.3145 1.178 10.9436C0.807665 10.5726 0.622193 10.0883 0.621582 9.49067V2.50933C0.621582 1.91106 0.807054 1.42675 1.178 1.05642C1.54894 0.685472 2.03355 0.5 2.63183 0.5H9.61225C10.2105 0.5 10.6948 0.685472 11.0652 1.05642C11.4361 1.42675 11.6216 1.91106 11.6216 2.50933V9.49067C11.6216 10.0889 11.4361 10.5732 11.0652 10.9436C10.6948 11.3145 10.2105 11.5 9.61225 11.5H2.63183ZM1.53825 9.14142C2.21047 8.70875 2.92853 8.37081 3.69242 8.12758C4.4563 7.88436 5.26603 7.76275 6.12158 7.76275C6.97714 7.76275 7.78686 7.88436 8.55075 8.12758C9.31464 8.37081 10.0327 8.70875 10.7049 9.14142V2.50933C10.7049 2.20378 10.5992 1.94528 10.3877 1.73383C10.1763 1.52239 9.9178 1.41667 9.61225 1.41667H2.63183C2.32628 1.41667 2.06747 1.52239 1.85542 1.73383C1.64397 1.94528 1.53825 2.20378 1.53825 2.50933V9.14142ZM6.12158 6.8635C5.5013 6.8635 4.973 6.64564 4.53667 6.20992C4.10094 5.77358 3.88308 5.24528 3.88308 4.625C3.88308 4.00472 4.10094 3.47642 4.53667 3.04008C4.973 2.60436 5.50161 2.3865 6.1225 2.3865C6.74278 2.3865 7.27078 2.60436 7.7065 3.04008C8.14283 3.47642 8.361 4.00472 8.361 4.625C8.361 5.24528 8.14283 5.77358 7.7065 6.20992C7.27078 6.64564 6.74247 6.8635 6.12158 6.8635ZM14.5833 11.5V0.5H15.5V11.5H14.5833ZM18.4608 11.5V0.5H19.3775V11.5H18.4608Z" fill="#929292"/>
</svg>
