<svg width="22" height="20" viewBox="0 0 22 20" fill="none" xmlns="http://www.w3.org/2000/svg">
<g clip-path="url(#clip0_64_311)">
<path d="M15.5218 15.8437C15.4946 15.8726 15.4617 15.8961 15.4251 15.9126C15.3885 15.9292 15.3489 15.9386 15.3085 15.9402C15.2681 15.9419 15.2277 15.9358 15.1897 15.9222C15.1517 15.9087 15.1168 15.888 15.0869 15.8614C14.7831 15.5911 14.5231 15.4215 14.0925 15.3555C13.662 15.2895 13.3626 15.373 12.9893 15.5401C12.9526 15.5565 12.9129 15.5657 12.8725 15.5672C12.8321 15.5686 12.7918 15.5623 12.7538 15.5486C12.7158 15.5349 12.681 15.5141 12.6512 15.4873C12.6215 15.4606 12.5974 15.4284 12.5804 15.3926C12.5634 15.3568 12.5538 15.3182 12.5521 15.2789C12.5504 15.2395 12.5567 15.2003 12.5707 15.1634C12.5846 15.1265 12.6059 15.0927 12.6332 15.0638C12.6606 15.035 12.6936 15.0117 12.7303 14.9953C13.1846 14.7921 13.6057 14.6748 14.1859 14.7636C14.7661 14.8525 15.1311 15.0903 15.5014 15.4198C15.5314 15.4464 15.5557 15.4785 15.573 15.5142C15.5903 15.5499 15.6001 15.5886 15.602 15.628C15.6039 15.6673 15.5978 15.7067 15.584 15.7437C15.5703 15.7807 15.5491 15.8147 15.5218 15.8437ZM17.2193 12.501C17.0375 12.6459 16.6786 12.7213 16.385 12.6763C16.0913 12.6313 15.7726 12.4522 15.644 12.2597C15.6224 12.2257 15.5941 12.1962 15.5606 12.1729C15.5272 12.1497 15.4893 12.1332 15.4493 12.1243C15.4092 12.1155 15.3678 12.1145 15.3274 12.1215C15.2871 12.1284 15.2486 12.1432 15.2142 12.1649C15.1798 12.1865 15.1503 12.2147 15.1273 12.2477C15.1043 12.2806 15.0884 12.3178 15.0804 12.3569C15.0724 12.396 15.0725 12.4364 15.0808 12.4755C15.089 12.5146 15.1052 12.5518 15.1284 12.5848C15.3531 12.9223 15.821 13.1961 16.2916 13.2682C16.7623 13.3403 17.2924 13.2194 17.6104 12.965C17.6427 12.9405 17.6696 12.9099 17.6895 12.8751C17.7094 12.8403 17.7219 12.8019 17.7264 12.7622C17.7308 12.7226 17.727 12.6824 17.7153 12.6441C17.7036 12.6058 17.6841 12.5701 17.658 12.5392C17.632 12.5083 17.5998 12.4827 17.5635 12.464C17.5272 12.4453 17.4874 12.4338 17.4465 12.4303C17.4057 12.4267 17.3645 12.4311 17.3255 12.4433C17.2864 12.4554 17.2503 12.475 17.2193 12.501ZM19.9021 9.47697L19.4683 12.2277C19.1925 13.9762 18.4493 15.55 17.3759 16.6586C16.2731 17.7985 14.9521 18.3165 13.6568 18.1181C12.3615 17.9197 11.2624 17.031 10.5627 15.6155C9.88131 14.2381 9.65789 12.5162 9.93366 10.7677L10.3676 8.01649C10.3857 7.90456 10.4315 7.79871 10.5011 7.70806C10.5707 7.61741 10.662 7.54468 10.7671 7.49615C10.8722 7.44761 10.9879 7.42473 11.1043 7.42947C11.2208 7.43421 11.3344 7.46644 11.4354 7.52336C12.1125 7.9029 13.4916 8.5809 15.1216 8.83058C16.7516 9.08026 18.2745 8.84677 19.0366 8.6877C19.1504 8.66367 19.2686 8.66695 19.381 8.69726C19.4933 8.72757 19.5966 8.78399 19.6818 8.86167C19.767 8.93935 19.8315 9.03595 19.8699 9.14315C19.9083 9.25034 19.9194 9.36491 19.9021 9.47697ZM19.2936 9.38375C19.2961 9.36772 19.2946 9.3513 19.2892 9.33593C19.2838 9.32056 19.2746 9.30669 19.2624 9.29552C19.2503 9.28436 19.2355 9.27623 19.2195 9.27185C19.2034 9.26747 19.1865 9.26697 19.1702 9.27038C18.3653 9.44361 16.7577 9.68736 15.0283 9.42245C13.2989 9.15755 11.8422 8.44443 11.1286 8.0391C11.1142 8.03095 11.098 8.02633 11.0813 8.02563C11.0647 8.02493 11.0482 8.02818 11.0331 8.03509C11.0181 8.04206 11.0051 8.0525 10.9951 8.06551C10.9852 8.07851 10.9787 8.09368 10.9762 8.10971L10.5424 10.86C10.018 14.1848 11.4573 17.175 13.7502 17.5262C16.043 17.8774 18.3354 15.4588 18.8596 12.135L19.2936 9.38375ZM13.9589 12.4057C13.9912 12.3812 14.018 12.3506 14.038 12.3158C14.0579 12.2809 14.0704 12.2426 14.0748 12.2029C14.0793 12.1632 14.0755 12.1231 14.0638 12.0848C14.052 12.0465 14.0326 12.0108 14.0065 11.9799C13.9804 11.9489 13.9483 11.9234 13.912 11.9047C13.8756 11.886 13.8359 11.8745 13.795 11.8709C13.7541 11.8674 13.713 11.8718 13.6739 11.8839C13.6349 11.8961 13.5988 11.9157 13.5677 11.9417C13.3859 12.0866 13.0271 12.1619 12.7334 12.117C12.4398 12.072 12.1211 11.8928 11.9925 11.7004C11.947 11.6356 11.8774 11.5907 11.7985 11.5751C11.7197 11.5596 11.6378 11.5746 11.5704 11.6171C11.5031 11.6596 11.4555 11.7261 11.4381 11.8024C11.4206 11.8787 11.4345 11.9588 11.4769 12.0255C11.7015 12.363 12.1694 12.6367 12.6401 12.7088C13.1107 12.7809 13.6409 12.6601 13.9589 12.4057Z" fill="#929292"/>
</g>
<path d="M9.76894 6.33412C9.79728 6.36392 9.81929 6.39901 9.83368 6.43731C9.84807 6.47561 9.85455 6.51636 9.85273 6.55717C9.85091 6.59797 9.84083 6.638 9.82309 6.67491C9.80535 6.71182 9.7803 6.74487 9.74941 6.77211C9.71853 6.79934 9.68243 6.82022 9.64325 6.83351C9.60406 6.84681 9.56257 6.85225 9.52122 6.84951C9.47987 6.84678 9.43949 6.83593 9.40245 6.8176C9.36541 6.79927 9.33247 6.77383 9.30555 6.74278C9.14694 6.56808 8.80069 6.43629 8.50058 6.43629C8.20046 6.43629 7.85421 6.56808 7.6956 6.74278C7.64004 6.80119 7.5635 6.83587 7.48233 6.83938C7.40117 6.8429 7.32183 6.81497 7.26129 6.76158C7.20075 6.70819 7.16381 6.63358 7.15838 6.55369C7.15294 6.47381 7.17944 6.395 7.23221 6.33412C7.50952 6.02763 8.01956 5.8233 8.50058 5.8233C8.98159 5.8233 9.49163 6.02763 9.76894 6.33412ZM5.57353 6.74278C5.60045 6.77383 5.63339 6.79927 5.67043 6.8176C5.70747 6.83593 5.74785 6.84678 5.7892 6.84951C5.83055 6.85225 5.87204 6.84681 5.91123 6.83351C5.95041 6.82022 5.98651 6.79934 6.01739 6.77211C6.04828 6.74487 6.07333 6.71182 6.09107 6.67491C6.10881 6.638 6.11889 6.59797 6.12071 6.55717C6.12253 6.51636 6.11605 6.47561 6.10166 6.43731C6.08728 6.39901 6.06526 6.36392 6.03692 6.33412C5.75961 6.02763 5.24957 5.8233 4.76856 5.8233C4.28754 5.8233 3.7775 6.02763 3.50019 6.33412C3.47185 6.36392 3.44984 6.39901 3.43545 6.43731C3.42106 6.47561 3.41459 6.51636 3.41641 6.55717C3.41822 6.59797 3.4283 6.638 3.44604 6.67491C3.46378 6.71182 3.48883 6.74487 3.51972 6.77211C3.5506 6.79934 3.5867 6.82022 3.62589 6.83351C3.66507 6.84681 3.70656 6.85225 3.74791 6.84951C3.78926 6.84678 3.82964 6.83593 3.86668 6.8176C3.90372 6.79927 3.93666 6.77383 3.96358 6.74278C4.12219 6.56808 4.46844 6.43629 4.76856 6.43629C5.06867 6.43629 5.41492 6.56808 5.57353 6.74278ZM8.61772 8.34827C8.58665 8.32214 8.55066 8.3023 8.5118 8.28987C8.47295 8.27745 8.43199 8.27269 8.39127 8.27587C8.35055 8.27905 8.31086 8.2901 8.27447 8.30839C8.23809 8.32669 8.20572 8.35187 8.17921 8.3825C7.99 8.60487 7.75366 8.78369 7.48679 8.90638C7.21993 9.02907 6.92904 9.09265 6.63457 9.09265C6.34009 9.09265 6.0492 9.02907 5.78234 8.90638C5.51547 8.78369 5.27913 8.60487 5.08992 8.3825C5.06341 8.35188 5.03104 8.3267 4.99465 8.30841C4.95827 8.29011 4.91858 8.27906 4.87786 8.27589C4.83714 8.27271 4.79618 8.27746 4.75733 8.28989C4.71848 8.30231 4.68249 8.32215 4.65141 8.34827C4.62034 8.3744 4.59479 8.40631 4.57623 8.44216C4.55767 8.47802 4.54645 8.51713 4.54323 8.55726C4.54 8.59739 4.54483 8.63775 4.55743 8.67604C4.57004 8.71433 4.59017 8.7498 4.61668 8.78043C4.86434 9.07018 5.17325 9.3031 5.52181 9.46288C5.87037 9.62266 6.25014 9.70545 6.63457 9.70545C7.01899 9.70545 7.39876 9.62266 7.74732 9.46288C8.09588 9.3031 8.40479 9.07018 8.65245 8.78043C8.67897 8.74981 8.6991 8.71434 8.71171 8.67605C8.72432 8.63775 8.72915 8.59739 8.72592 8.55726C8.7227 8.51713 8.71148 8.47802 8.69291 8.44216C8.67435 8.4063 8.6488 8.3744 8.61772 8.34827ZM11.5069 2.45191V5.30074C11.5069 7.11159 11.0129 8.81823 10.1162 10.1055C9.19515 11.429 7.9584 12.1574 6.63457 12.1574C5.31074 12.1574 4.07399 11.429 3.1529 10.106C2.25618 8.81874 1.76221 7.1121 1.76221 5.30125V2.45191C1.76266 2.33592 1.79173 2.22178 1.84691 2.11933C1.9021 2.01688 1.98174 1.9292 2.07898 1.86384C2.17621 1.79848 2.28812 1.75741 2.40505 1.74418C2.52197 1.73094 2.64041 1.74593 2.75016 1.78785C3.48567 2.06675 4.96863 2.53875 6.63457 2.53875C8.3005 2.53875 9.78346 2.06675 10.519 1.78785C10.6287 1.74593 10.7472 1.73094 10.8641 1.74418C10.981 1.75741 11.0929 1.79848 11.1902 1.86384C11.2874 1.9292 11.367 2.01688 11.4222 2.11933C11.4774 2.22178 11.5065 2.33592 11.5069 2.45191ZM10.8849 2.45191C10.885 2.43522 10.8809 2.41877 10.8731 2.40398C10.8652 2.3892 10.8538 2.37654 10.8398 2.36711C10.8261 2.3575 10.81 2.35148 10.7933 2.3496C10.7765 2.34773 10.7595 2.35006 10.7439 2.35639C9.96798 2.65624 8.40209 3.15173 6.63457 3.15173C4.86704 3.15173 3.30115 2.65624 2.5252 2.3569C2.50953 2.35089 2.49261 2.34873 2.47591 2.35059C2.4592 2.35246 2.44321 2.35831 2.42931 2.36763C2.41541 2.37701 2.40403 2.38958 2.39618 2.40427C2.38832 2.41896 2.38421 2.43531 2.38421 2.45191V5.30023C2.38421 8.74365 4.29117 11.5445 6.63457 11.5445C8.97796 11.5445 10.8849 8.74365 10.8849 5.30125V2.45191Z" fill="#929292"/>
<defs>
<clipPath id="clip0_64_311">
<rect width="13.1347" height="12.7827" fill="white" transform="matrix(0.988471 0.151411 -0.155794 0.98779 9.0166 5.38477)"/>
</clipPath>
</defs>
</svg>
