<svg width="20" height="16" viewBox="0 0 20 16" fill="none" xmlns="http://www.w3.org/2000/svg">
<path d="M2.73074 4.46903C3.08981 4.46903 3.32945 4.26632 3.32945 3.85225V0.878319C3.32945 0.491354 3.05288 0.242676 2.65728 0.242676C2.3257 0.242676 2.12299 0.353069 1.89278 0.509819L1.24849 0.960819C1.05481 1.08968 0.953847 1.2095 0.953847 1.40278C0.953847 1.64243 1.14713 1.80782 1.35849 1.80782C1.46928 1.80782 1.5337 1.78935 1.69045 1.67896L2.11395 1.39375H2.12299V3.85185C2.12299 4.26632 2.37167 4.46903 2.73074 4.46903ZM5.92585 3.3545H18.5311C18.9546 3.3545 19.2767 3.03235 19.2767 2.61789C19.2767 2.19439 18.9546 1.87185 18.5311 1.87185H5.92585C5.51138 1.87185 5.18924 2.194 5.18924 2.61789C5.18924 3.03196 5.51138 3.3545 5.92585 3.3545ZM1.24849 10.0213H3.61467C3.87238 10.0213 4.05663 9.84607 4.05663 9.58836C4.05663 9.31218 3.87238 9.13735 3.61467 9.13735H2.2982V9.10986L3.05288 8.50171C3.68813 7.98628 3.92778 7.69164 3.92778 7.14832C3.92778 6.41171 3.31099 5.91475 2.31628 5.91475C1.44178 5.91475 0.797097 6.37478 0.797097 6.96407C0.797097 7.25871 0.990383 7.41546 1.30388 7.41546C1.51524 7.41546 1.66256 7.35103 1.78238 7.13928C1.91124 6.9181 2.08606 6.79828 2.33474 6.79828C2.61092 6.79828 2.79517 6.9735 2.79517 7.23121C2.79517 7.45239 2.68478 7.64568 2.21531 8.02321L0.999811 9.01714C0.82499 9.16486 0.751133 9.33064 0.751133 9.53296C0.751133 9.81857 0.944419 10.0213 1.24849 10.0213ZM5.92585 8.92482H18.5311C18.6293 8.92598 18.7268 8.90748 18.8178 8.87042C18.9088 8.83336 18.9914 8.77848 19.0609 8.70901C19.1304 8.63954 19.1852 8.55688 19.2223 8.46589C19.2594 8.3749 19.2779 8.27742 19.2767 8.17918C19.2767 7.76471 18.9546 7.44257 18.5311 7.44257H5.92585C5.82875 7.44125 5.73237 7.4594 5.6424 7.49595C5.55244 7.5325 5.47071 7.58671 5.40204 7.65537C5.33338 7.72404 5.27917 7.80577 5.24262 7.89573C5.20607 7.9857 5.18792 8.08208 5.18924 8.17918C5.18924 8.59364 5.51138 8.92482 5.92585 8.92482ZM2.34417 15.7578C3.43042 15.7578 4.08453 15.2699 4.08453 14.4967C4.08453 13.9899 3.72506 13.6403 3.08981 13.5849V13.5574C3.55928 13.4745 3.91874 13.1614 3.91874 12.6271C3.91874 11.9278 3.23713 11.5409 2.33474 11.5409C1.60756 11.5409 0.82499 11.8815 0.82499 12.4892C0.82499 12.7469 1.00885 12.9312 1.29445 12.9312C1.49678 12.9312 1.5891 12.8483 1.71795 12.71C1.9297 12.4798 2.10453 12.4063 2.3257 12.4063C2.61092 12.4063 2.82267 12.5442 2.82267 12.8204C2.82267 13.0785 2.61092 13.2074 2.23338 13.2074H2.12338C1.86528 13.2074 1.69949 13.3362 1.69949 13.6034C1.69949 13.852 1.85585 13.9994 2.12299 13.9994H2.24281C2.65728 13.9994 2.87806 14.1372 2.87806 14.4229C2.87806 14.6715 2.64785 14.8554 2.34378 14.8554C2.0126 14.8554 1.78238 14.6715 1.60756 14.4963C1.49678 14.395 1.40485 14.3215 1.23906 14.3215C0.935383 14.3215 0.723633 14.4963 0.723633 14.7819C0.723633 15.4172 1.5891 15.7578 2.34417 15.7578ZM5.92585 14.4873H18.5311C18.9546 14.4873 19.2767 14.1651 19.2767 13.7507C19.2767 13.3272 18.9546 13.0046 18.5311 13.0046H5.92585C5.51138 13.0046 5.18924 13.3268 5.18924 13.7507C5.18924 14.1647 5.51138 14.4873 5.92585 14.4873Z" fill="#929292"/>
</svg>
