<svg width="18" height="16" viewBox="0 0 18 16" fill="none" xmlns="http://www.w3.org/2000/svg">
<path d="M9.91667 2.16659H17.25M9.91667 5.49992H14.5M9.91667 10.4999H17.25M9.91667 13.8333H14.5M0.75 2.16659C0.75 1.94557 0.846577 1.73361 1.01849 1.57733C1.19039 1.42105 1.42355 1.33325 1.66667 1.33325H5.33333C5.57645 1.33325 5.80961 1.42105 5.98151 1.57733C6.15342 1.73361 6.25 1.94557 6.25 2.16659V5.49992C6.25 5.72093 6.15342 5.93289 5.98151 6.08917C5.80961 6.24545 5.57645 6.33325 5.33333 6.33325H1.66667C1.42355 6.33325 1.19039 6.24545 1.01849 6.08917C0.846577 5.93289 0.75 5.72093 0.75 5.49992V2.16659ZM0.75 10.4999C0.75 10.2789 0.846577 10.0669 1.01849 9.91066C1.19039 9.75438 1.42355 9.66659 1.66667 9.66659H5.33333C5.57645 9.66659 5.80961 9.75438 5.98151 9.91066C6.15342 10.0669 6.25 10.2789 6.25 10.4999V13.8333C6.25 14.0543 6.15342 14.2662 5.98151 14.4225C5.80961 14.5788 5.57645 14.6666 5.33333 14.6666H1.66667C1.42355 14.6666 1.19039 14.5788 1.01849 14.4225C0.846577 14.2662 0.75 14.0543 0.75 13.8333V10.4999Z" stroke="#929292" stroke-linecap="round" stroke-linejoin="round"/>
</svg>
