<svg width="22" height="20" viewBox="0 0 22 20" fill="none" xmlns="http://www.w3.org/2000/svg">
<path d="M2.75 8.33341C2.75 5.19091 2.75 3.61925 3.82433 2.64341C4.89775 1.66675 6.62658 1.66675 10.0833 1.66675H11.9167C15.3734 1.66675 17.1022 1.66675 18.1757 2.64341C19.25 3.61925 19.25 5.19091 19.25 8.33341V11.6667C19.25 14.8092 19.25 16.3809 18.1757 17.3567C17.1022 18.3334 15.3734 18.3334 11.9167 18.3334H10.0833C6.62658 18.3334 4.89775 18.3334 3.82433 17.3567C2.75 16.3809 2.75 14.8092 2.75 11.6667V8.33341Z" stroke="#929292"/>
<path d="M7.3335 8.3335H14.6668M7.3335 11.6668H11.9168" stroke="#929292" stroke-linecap="round"/>
</svg>
