<svg width="22" height="20" viewBox="0 0 22 20" fill="none" xmlns="http://www.w3.org/2000/svg">
<path d="M20.625 12.75L22 19.625H0L1.375 12.75H3.86719C3.50195 12.1198 3.22624 11.4574 3.04004 10.7627C2.85384 10.068 2.75716 9.35547 2.75 8.625C2.75 7.86589 2.84668 7.13542 3.04004 6.43359C3.2334 5.73177 3.5127 5.0765 3.87793 4.46777C4.24316 3.85905 4.67285 3.30046 5.16699 2.79199C5.66113 2.28353 6.21615 1.85384 6.83203 1.50293C7.44792 1.15202 8.10677 0.876302 8.80859 0.675781C9.51042 0.47526 10.2409 0.375 11 0.375C11.7591 0.375 12.4896 0.47168 13.1914 0.665039C13.8932 0.858398 14.5485 1.1377 15.1572 1.50293C15.766 1.86816 16.3245 2.29785 16.833 2.79199C17.3415 3.28613 17.7712 3.84115 18.1221 4.45703C18.473 5.07292 18.7487 5.73177 18.9492 6.43359C19.1497 7.13542 19.25 7.86589 19.25 8.625C19.25 9.35547 19.1569 10.068 18.9707 10.7627C18.7845 11.4574 18.5052 12.1198 18.1328 12.75H20.625ZM17.875 8.625C17.875 8.39583 17.8643 8.16667 17.8428 7.9375C17.8213 7.70833 17.7855 7.47917 17.7354 7.25H15.0605C15.1035 7.71549 15.125 8.17383 15.125 8.625C15.125 9.08333 15.1035 9.54167 15.0605 10H17.7354C17.7783 9.77083 17.8105 9.54167 17.832 9.3125C17.8535 9.08333 17.8678 8.85417 17.875 8.625ZM8.31445 10H13.6855C13.7285 9.54167 13.75 9.08333 13.75 8.625C13.75 8.17383 13.7285 7.71549 13.6855 7.25H8.31445C8.27148 7.71549 8.25 8.17383 8.25 8.625C8.25 9.08333 8.27148 9.54167 8.31445 10ZM13.4922 11.375H8.50781C8.53646 11.5397 8.58659 11.7546 8.6582 12.0195C8.72982 12.2845 8.81934 12.5745 8.92676 12.8896C9.03418 13.2048 9.1595 13.5127 9.30273 13.8135C9.44596 14.1143 9.60352 14.3936 9.77539 14.6514C9.94727 14.9092 10.137 15.1133 10.3447 15.2637C10.5524 15.4141 10.7708 15.4928 11 15.5C11.2292 15.5 11.444 15.4212 11.6445 15.2637C11.8451 15.1061 12.0348 14.902 12.2139 14.6514C12.3929 14.4007 12.5505 14.1214 12.6865 13.8135C12.8226 13.5055 12.9479 13.1976 13.0625 12.8896C13.1771 12.5817 13.2666 12.2952 13.3311 12.0303C13.3955 11.7653 13.4492 11.5469 13.4922 11.375ZM8.36816 14.9736C8.03874 14.4294 7.77376 13.8493 7.57324 13.2334C7.37272 12.6175 7.21875 11.998 7.11133 11.375H4.70508C4.87695 11.7546 5.0918 12.1234 5.34961 12.4814C5.60742 12.8395 5.89388 13.1797 6.20898 13.502C6.52409 13.8242 6.86784 14.1071 7.24023 14.3506C7.61263 14.5941 7.98861 14.8018 8.36816 14.9736ZM14.8887 11.375C14.7741 11.9909 14.6201 12.6068 14.4268 13.2227C14.2334 13.8385 13.972 14.4222 13.6426 14.9736C14.0293 14.8018 14.4017 14.5905 14.7598 14.3398C15.1178 14.0892 15.458 13.8099 15.7803 13.502C16.1025 13.194 16.3926 12.8574 16.6504 12.4922C16.9082 12.127 17.123 11.7546 17.2949 11.375H14.8887ZM17.2949 5.875C16.9297 5.06576 16.4355 4.34961 15.8125 3.72656C15.1895 3.10352 14.4626 2.62012 13.6318 2.27637C13.9613 2.82064 14.2227 3.40072 14.416 4.0166C14.6094 4.63249 14.7669 5.25195 14.8887 5.875H17.2949ZM11 1.75C10.7708 1.75 10.556 1.82878 10.3555 1.98633C10.1549 2.14388 9.96517 2.34798 9.78613 2.59863C9.6071 2.84928 9.44954 3.12858 9.31348 3.43652C9.17741 3.74447 9.05208 4.05241 8.9375 4.36035C8.82292 4.66829 8.72982 4.95475 8.6582 5.21973C8.58659 5.4847 8.53646 5.70312 8.50781 5.875H13.4922C13.4564 5.71029 13.4062 5.49544 13.3418 5.23047C13.2773 4.96549 13.1878 4.67546 13.0732 4.36035C12.9587 4.04525 12.8333 3.7373 12.6973 3.43652C12.5612 3.13574 12.4036 2.85645 12.2246 2.59863C12.0456 2.34082 11.8558 2.13672 11.6553 1.98633C11.4548 1.83594 11.2363 1.75716 11 1.75ZM8.36816 2.27637C7.5446 2.62012 6.82129 3.10352 6.19824 3.72656C5.5752 4.34961 5.07747 5.06576 4.70508 5.875H7.11133C7.22591 5.25195 7.37988 4.63249 7.57324 4.0166C7.7666 3.40072 8.03158 2.82064 8.36816 2.27637ZM4.26465 7.25C4.22168 7.47917 4.18945 7.70833 4.16797 7.9375C4.14648 8.16667 4.13216 8.39583 4.125 8.625C4.125 8.85417 4.13574 9.08333 4.15723 9.3125C4.17871 9.54167 4.21452 9.77083 4.26465 10H6.93945C6.89648 9.54167 6.875 9.08333 6.875 8.625C6.875 8.17383 6.89648 7.71549 6.93945 7.25H4.26465ZM1.67578 18.25H20.3242L19.4971 14.125H17.1338C16.7471 14.5618 16.321 14.9486 15.8555 15.2852C15.39 15.6217 14.8923 15.9118 14.3623 16.1553C13.8324 16.3988 13.2881 16.5778 12.7295 16.6924C12.1709 16.807 11.5944 16.8678 11 16.875C10.4128 16.875 9.83626 16.8141 9.27051 16.6924C8.70475 16.5706 8.16048 16.3916 7.6377 16.1553C7.11491 15.9189 6.62077 15.6325 6.15527 15.2959C5.68978 14.9593 5.26009 14.569 4.86621 14.125H2.50293L1.67578 18.25Z" fill="#929292"/>
</svg>
